<svg width="21" height="21" viewBox="0 0 21 21" fill="none" xmlns="http://www.w3.org/2000/svg">
<path d="M17 9L19.5 13.5L17 14V17H15.5L12.5 16.5L12 20H4.5L3.5 14.8095C1.96 13.3515 1 11.288 1 9C1 4.5815 4.5815 1 9 1C13.4185 1 17 4.5815 17 9Z" stroke="black" stroke-width="2" stroke-linecap="round" stroke-linejoin="round"/>
<path d="M6.5 8C6.5 7.50555 6.64662 7.0222 6.92133 6.61108C7.19603 6.19995 7.58648 5.87952 8.04329 5.6903C8.50011 5.50108 9.00277 5.45157 9.48773 5.54804C9.97268 5.6445 10.4181 5.8826 10.7678 6.23223C11.1174 6.58187 11.3555 7.02732 11.452 7.51228C11.5484 7.99723 11.4989 8.4999 11.3097 8.95671C11.1205 9.41353 10.8 9.80397 10.3889 10.0787C9.9778 10.3534 9.49445 10.5 9 10.5V12M9 15V15.5" stroke="black" stroke-width="2" stroke-linecap="round" stroke-linejoin="round"/>
</svg>
